<?xml version="1.0" standalone="no"?>
<!DOCTYPE svg PUBLIC "-//W3C//DTD SVG 20010904//EN"
 "http://www.w3.org/TR/2001/REC-SVG-20010904/DTD/svg10.dtd">
<svg version="1.0" xmlns="http://www.w3.org/2000/svg"
 width="300.000000pt" height="300.000000pt" viewBox="0 0 300.000000 300.000000"
 preserveAspectRatio="xMidYMid meet">
<metadata>
Created by potrace 1.11, written by Peter Selinger 2001-2013
</metadata>
<g transform="translate(0.000000,300.000000) scale(0.100000,-0.100000)"
fill="#000000" stroke="none">
<path d="M1339 2866 c-2 -3 -24 -7 -49 -11 -110 -15 -257 -60 -368 -112 -345
-161 -614 -466 -725 -818 -31 -97 -35 -111 -42 -150 -2 -16 -8 -41 -11 -55
-13 -56 -13 -356 1 -435 59 -340 233 -643 480 -840 28 -21 52 -42 55 -45 4 -6
58 -42 115 -77 91 -57 274 -131 394 -159 36 -9 75 -18 86 -21 51 -13 383 -11
455 3 41 8 86 16 100 19 46 7 204 66 282 105 382 192 642 530 733 955 21 97
23 131 21 285 -4 176 -8 222 -27 295 -6 22 -12 47 -14 55 -8 38 -51 153 -87
228 -184 389 -530 661 -968 758 -68 15 -419 31 -431 20z"/>
</g>
</svg>
